<?xml version="1.0" encoding="utf-8"?>
<!-- Generator: Adobe Illustrator 15.0.0, SVG Export Plug-In . SVG Version: 6.00 Build 0)  -->
<!DOCTYPE svg PUBLIC "-//W3C//DTD SVG 1.1//EN" "http://www.w3.org/Graphics/SVG/1.1/DTD/svg11.dtd">
<svg version="1.1" id="Layer_1" xmlns="http://www.w3.org/2000/svg" xmlns:xlink="http://www.w3.org/1999/xlink" x="0px" y="0px"
	 width="205.168px" height="142.091px" viewBox="0 0 205.168 142.091" enable-background="new 0 0 205.168 142.091"
	 xml:space="preserve">
<g>
	<polygon fill="#FFFFFF" points="99.584,36.21 84.584,36.21 83.52,50.21 100.584,50.21 	"/>
	<polygon fill="#FFFFFF" points="99.584,66.21 84.584,66.21 83.52,80.21 100.584,80.21 	"/>
	<g>
		<path fill="#0A466C" d="M47.477,94.356c0.299,0,0.646,0.008,0.84-0.089c0.257-0.14,0.354-0.507,0.486-1.057
			c0.167-0.604,0.589-1.076,1.66-0.854v0.709c-0.389-0.034-0.598,0.084-0.703,0.453c-0.145,0.553-0.311,0.991-0.61,1.291l1.486,2.25
			v0.152h-1.173l-1.222-2c-0.188,0.049-0.549,0.049-0.765,0.049v1.951h-1.035v-4.861h1.035V94.356z"/>
		<path fill="#0A466C" d="M54.751,96.344c0.757,0,1.445-0.5,1.445-1.562c0-1.035-0.68-1.551-1.438-1.551
			c-0.764,0-1.444,0.523-1.444,1.551C53.314,95.844,53.974,96.344,54.751,96.344 M54.738,97.296c-1.299,0-2.473-0.876-2.473-2.514
			c0-1.64,1.201-2.508,2.493-2.508c1.271,0,2.474,0.875,2.474,2.508C57.232,96.261,56.21,97.296,54.738,97.296"/>
		<polygon fill="#0A466C" points="58.929,93.253 58.929,92.351 62.528,92.351 62.528,93.253 61.235,93.253 61.235,97.212 
			60.228,97.212 60.228,93.253 		"/>
		<polygon fill="#0A466C" points="64.168,93.253 64.168,92.351 67.766,92.351 67.766,93.253 66.475,93.253 66.475,97.212 
			65.467,97.212 65.467,93.253 		"/>
		<polygon fill="#0A466C" points="72.825,93.261 70.895,93.261 70.895,94.245 72.7,94.245 72.7,95.157 70.895,95.157 70.895,96.269 
			72.881,96.269 72.881,97.212 69.845,97.212 69.845,92.351 72.825,92.351 		"/>
		<path fill="#0A466C" d="M76.537,95.692c-0.022,0.213-0.118,0.52-0.327,0.658h1.827v-3.104h-1.243L76.537,95.692z M74.954,96.329
			c0.417-0.006,0.499-0.214,0.556-0.68l0.381-3.299h3.167v3.979h0.522v1.57h-0.932v-0.688h-2.883v0.688h-0.979v-1.57H74.954z"/>
		<path fill="#0A466C" d="M87.069,97.212c-0.411-0.668-0.82-1.333-1.224-1.992c-0.18,0.039-0.312,0.061-0.527,0.061v1.932H84.29
			V95.28c-0.208,0-0.346-0.021-0.527-0.061c-0.403,0.659-0.812,1.324-1.222,1.992h-1.174V97.06c0.492-0.751,0.992-1.5,1.492-2.25
			c-0.298-0.291-0.443-0.758-0.582-1.313c-0.104-0.374-0.369-0.485-0.737-0.431v-0.701c0.812-0.174,1.474-0.014,1.66,0.855
			c0.07,0.332,0.188,0.839,0.514,1.021c0.166,0.103,0.341,0.11,0.576,0.11v-2h1.029v2c0.23,0,0.417-0.008,0.583-0.11
			c0.318-0.182,0.437-0.688,0.514-1.021c0.181-0.869,0.84-1.029,1.652-0.855v0.701c-0.368-0.055-0.625,0.057-0.735,0.431
			c-0.146,0.556-0.284,1.022-0.576,1.313c0.492,0.75,0.993,1.499,1.486,2.25v0.152H87.069z"/>
		<polygon fill="#0A466C" points="93.227,97.212 93.227,95.157 91.365,95.157 91.365,97.212 90.331,97.212 90.331,92.351 
			91.365,92.351 91.365,94.204 93.227,94.204 93.227,92.351 94.269,92.351 94.269,97.212 		"/>
		<path fill="#0A466C" d="M102.308,97.212h-1.034v-4.861h1.034V97.212z M98.737,94.788H97.8v1.508c0.284,0,0.576,0.008,0.867,0.008
			c0.535,0,0.849-0.211,0.896-0.668c0.042-0.439-0.236-0.848-0.722-0.848H98.737z M97.8,92.468v1.404h1.042
			c1.222,0,1.826,0.951,1.716,1.881c-0.098,0.786-0.697,1.459-1.716,1.459h-2.056v-4.861H97.8V92.468z"/>
		<path fill="#0A466C" d="M105.854,90.863c0.035,0.718,0.486,1.167,1.229,1.167c0.772,0,1.195-0.458,1.237-1.167
			c-0.204-0.021-0.485-0.048-0.692-0.062c-0.058,0.321-0.253,0.438-0.551,0.438c-0.32,0-0.485-0.153-0.521-0.438L105.854,90.863z
			 M105.139,97.227h-0.312v-4.876h1.04v2.757l2.731-2.778h0.326v4.883h-1.035v-2.779L105.139,97.227z"/>
		<polygon fill="#0A466C" points="118.473,92.351 118.473,97.212 117.429,97.212 117.429,93.295 115.576,93.295 115.576,97.212 
			114.533,97.212 114.533,92.351 		"/>
		<path fill="#0A466C" d="M123.207,96.344c0.754,0,1.443-0.5,1.443-1.562c0-1.035-0.68-1.551-1.438-1.551
			c-0.766,0-1.447,0.523-1.447,1.551C121.766,95.844,122.427,96.344,123.207,96.344 M123.19,97.296c-1.3,0-2.473-0.876-2.473-2.514
			c0-1.64,1.202-2.508,2.495-2.508c1.27,0,2.473,0.875,2.473,2.508C125.686,96.261,124.662,97.296,123.19,97.296"/>
		<path fill="#0A466C" d="M130.146,92.302c0.979,0,2.021,0.526,2.244,1.729h-1.01c-0.215-0.548-0.65-0.791-1.234-0.791
			c-0.861,0-1.438,0.625-1.438,1.549c0,0.833,0.561,1.527,1.431,1.527c0.603,0,1.096-0.285,1.264-0.875h1.001
			c-0.211,1.285-1.244,1.82-2.258,1.82c-1.278,0-2.486-0.861-2.486-2.473C127.66,93.169,128.868,92.281,130.146,92.302"/>
		<polygon fill="#0A466C" points="137.588,93.261 135.657,93.261 135.657,94.245 137.464,94.245 137.464,95.157 135.657,95.157 
			135.657,96.269 137.645,96.269 137.645,97.212 134.607,97.212 134.607,92.351 137.588,92.351 		"/>
		<path fill="#0A466C" d="M141.335,95.815c-0.118,1.265-0.542,1.558-1.821,1.377l0.02-0.752c0.586,0.062,0.705-0.125,0.766-0.658
			l0.363-3.432h3.27v4.861h-1.035V93.28h-1.326L141.335,95.815z"/>
		<path fill="#0A466C" d="M148.666,96.344c0.757,0,1.445-0.5,1.445-1.562c0-1.035-0.684-1.551-1.438-1.551
			c-0.767,0-1.446,0.523-1.446,1.551C147.227,95.844,147.887,96.344,148.666,96.344 M148.652,97.296
			c-1.301,0-2.475-0.876-2.475-2.514c0-1.64,1.204-2.508,2.495-2.508c1.271,0,2.472,0.875,2.472,2.508
			C151.145,96.261,150.124,97.296,148.652,97.296"/>
		<path fill="#0A466C" d="M154.426,94.356c0.297,0,0.646,0.008,0.841-0.089c0.256-0.14,0.354-0.507,0.485-1.057
			c0.168-0.604,0.591-1.076,1.661-0.854v0.709c-0.39-0.034-0.597,0.084-0.704,0.453c-0.146,0.553-0.311,0.991-0.609,1.291
			l1.486,2.25v0.152h-1.175l-1.224-2c-0.184,0.049-0.547,0.049-0.762,0.049v1.951h-1.035v-4.861h1.035V94.356z"/>
		<path fill="#0A466C" d="M19.816,100.202c-1.812-0.362-3.866-0.806-5.8-1.127l-5.437,25.576c-0.402,1.893-1.974,2.577-3.463,2.577
			c-0.927,0-1.691-0.202-2.135-0.524l6.283-27.832c-2.458,0.483-4.753,2.5-4.753,5.922c0,0.686,0.122,1.371,0.564,2.094
			C1.329,107.896,0,105.761,0,103.667c0-6.284,7.451-7.734,11.64-7.734c2.053,0,7.651,0.484,9.828,0.484
			c1.772,0,3.625-0.363,4.751-1.168c2.498,0.927,1.772,5.195-1.569,5.559l-4.229,19.613c-0.485,2.336,0.241,2.98,1.329,2.98
			c1.289,0,3.182-1.207,4.108-2.013c0.442,0.2,0.684,0.563,0.684,0.968c0,0.281-0.119,0.604-0.362,0.885
			c-2.336,2.174-4.672,3.987-7.008,3.987c-2.416,0-4.833-1.128-3.825-5.84L19.816,100.202z"/>
		<path fill="#0A466C" d="M31.939,113.173l-2.214,10.512c0.725,0.403,1.369,0.443,2.013,0.443c4.107,0,6.565-5.477,6.565-9.466
			c0-2.82-1.008-4.067-2.376-4.067C34.718,110.595,33.268,111.52,31.939,113.173 M27.63,111.237
			c0.162-0.643-0.041-1.007-0.403-1.007c-0.201,0-0.442,0.163-0.805,0.483c-0.524-0.32-0.806-1.568,0-2.213
			c1.37-1.089,2.818-1.934,4.51-1.934c1.451,0,2.296,0.684,1.934,2.215l-0.202,0.967c1.57-1.934,3.464-3.182,5.477-3.182
			c3.544,0,5.115,2.979,5.115,6.645c0,6.041-4.389,14.016-11.277,14.016c-0.966,0-1.974-0.361-2.779-1.047l-2.778,13.372
			c-0.404,1.853-1.813,2.538-3.263,2.538c-0.726,0-1.409-0.202-1.893-0.523L27.63,111.237z"/>
		<path fill="#0A466C" d="M46.802,111.237c0.161-0.643-0.041-1.007-0.404-1.007c-0.201,0-0.442,0.163-0.805,0.483
			c-0.523-0.32-0.806-1.568,0-2.213c1.369-1.089,2.819-1.934,4.511-1.934c1.449,0,2.255,0.684,1.933,2.215l-2.457,11.438
			c-0.362,1.652,0.161,2.375,1.369,2.375c1.41,0,2.618-0.805,3.706-2.092l2.416-11.398c0.404-1.854,1.934-2.537,3.384-2.537
			c0.726,0,1.41,0.201,1.893,0.523l-2.819,13.331c-0.444,2.054,0.081,2.939,0.886,2.939c0.726,0,1.653-0.483,2.255-1.933
			c0.766,0,1.209,0.402,1.209,1.087c0,2.821-3.304,4.712-5.558,4.712c-1.974,0-3.948-1.006-3.746-4.549
			c-1.612,2.617-3.585,4.549-5.881,4.549c-4.471,0-4.471-4.712-3.786-7.732L46.802,111.237z"/>
		<path fill="#0A466C" d="M93.724,121.389c0.442,0.2,0.685,0.563,0.685,0.966c0,0.281-0.12,0.605-0.363,0.887
			c-1.893,2.135-4.792,3.986-6.967,3.986c-2.014,0-4.552-1.047-3.746-6.322l1.047-6.888l-6.806,13.05
			c-1.894,0.482-3.303-0.041-3.384-1.934l-0.283-11.197c-1.168,3.908-2.294,6.646-3.464,8.619c-1.812,3.143-3.785,4.632-5.316,4.672
			c-1.65,0.041-2.859-1.57-2.859-4.51c0-1.934,1.329-2.498,2.819-2.498c0.484,0,1.128,0.202,1.652,0.564
			c-0.524,1.127-0.686,2.336-0.686,3.141c2.094-1.289,4.108-3.384,7.009-14.176c-2.054,0.241-3.545,0.805-4.631,2.014
			c-0.566-0.646-0.847-1.369-0.847-2.055c0-2.497,2.174-3.463,4.471-3.463c2.054,0,4.833,0.2,5.96,0.643l0.523,13.694l6.244-11.358
			c1.087-1.973,1.973-2.656,3.423-2.656c0.724,0,1.411,0.201,1.933,0.523l-1.853,13.331c-0.321,2.255,0.162,2.979,1.208,2.979
			C90.984,123.401,92.716,122.395,93.724,121.389"/>
		<path fill="#0A466C" d="M113.902,110.716c-1.049,0.885-2.617,2.779-4.268,3.826c0.038,0.16,0.038,0.322,0.038,0.443
			c0,6.16-5.677,12.242-10.513,12.242c-4.148,0-5.92-3.342-5.92-7.129c0-6.081,4.229-13.693,10.311-13.693
			c2.015,0,3.624,0.564,4.834,2.377c-0.08,0.928-0.766,1.369-1.371,1.128c-0.764-0.283-1.609-0.444-2.577-0.444
			c-3.665,0-6.042,5.398-6.042,9.345c0,3.544,1.209,4.914,2.619,4.914c2.054,0,4.633-2.979,4.633-6.605
			c0-0.524-0.081-1.088-0.202-1.65c-0.725-0.043-1.411-0.202-1.853-0.483c-0.846-2.217,0.041-4.231,2.336-4.231
			c1.369,0,2.539,0.687,3.181,1.853c1.612-1.006,3.104-2.736,4.794-4.107C114.667,109.146,114.465,110.23,113.902,110.716"/>
		<path fill="#0A466C" d="M119.421,113.173l-2.216,10.512c0.725,0.403,1.37,0.443,2.014,0.443c4.108,0,6.564-5.477,6.564-9.466
			c0-2.82-1.006-4.067-2.377-4.067C122.197,110.595,120.749,111.52,119.421,113.173 M115.109,111.237
			c0.161-0.643-0.039-1.007-0.4-1.007c-0.203,0-0.445,0.163-0.806,0.483c-0.524-0.32-0.806-1.568,0-2.213
			c1.367-1.089,2.818-1.934,4.51-1.934c1.451,0,2.296,0.684,1.934,2.215l-0.201,0.967c1.571-1.934,3.464-3.182,5.478-3.182
			c3.543,0,5.117,2.979,5.117,6.645c0,6.041-4.393,14.016-11.279,14.016c-0.967,0-1.973-0.361-2.779-1.047l-2.778,13.372
			c-0.403,1.853-1.813,2.538-3.263,2.538c-0.726,0-1.41-0.202-1.893-0.523L115.109,111.237z"/>
		<path fill="#0A466C" d="M138.914,127.229c-3.787,0-6.848-2.257-6.848-7.21c0-6.202,4.229-13.613,10.271-13.613
			c3.265,0,4.874,1.288,4.874,3.905c0,2.257-1.33,3.306-2.819,3.306c-0.524,0-1.167-0.163-1.61-0.564
			c0.443-0.969,0.644-2.055,0.644-2.619c0-0.766-0.482-1.168-1.488-1.168c-2.257,0-4.876,4.311-4.876,10.11
			c0,3.182,1.691,4.35,3.865,4.35c2.901,0,6.607-2.054,8.34-4.35c1.045-0.202,1.449,0.644,1.005,1.37
			C147.492,124.812,142.822,127.229,138.914,127.229"/>
		<path fill="#0A466C" d="M154.824,115.669l0.238-0.079c1.937-0.604,4.633-4.272,5.601-8.581c0.644-0.322,1.329-0.441,1.935-0.441
			c1.369,0,2.093,0.884,2.093,1.891c0,2.418-3.142,5.963-5.638,7.653c0.563,2.255,1.691,6.97,4.592,6.97
			c0.805,0,1.69-0.727,2.738-1.692c0.443,0.2,0.684,0.563,0.684,0.966c0,0.281-0.119,0.604-0.36,0.887
			c-1.45,1.771-4.229,3.986-5.923,3.986c-4.027,0-5.073-6.442-5.679-9.585l-0.724,0.202l-1.41,6.846
			c-0.402,1.854-1.934,2.537-3.384,2.537c-0.724,0-1.408-0.201-1.894-0.523l3.304-15.465c0.16-0.686-0.042-1.008-0.402-1.008
			c-0.201,0-0.445,0.162-0.807,0.484c-0.522-0.322-0.806-1.57,0-2.217c1.369-1.087,2.819-1.932,4.513-1.932
			c1.449,0,2.255,0.644,1.932,2.214L154.824,115.669z"/>
		<path fill="#0A466C" d="M168.154,111.237c0.161-0.643-0.04-1.007-0.402-1.007c-0.201,0-0.444,0.163-0.805,0.483
			c-0.524-0.32-0.807-1.568,0-2.213c1.368-1.089,2.816-1.934,4.511-1.934c1.448,0,2.294,0.684,1.931,2.215l-2.456,11.438
			c-0.362,1.652,0.162,2.375,1.368,2.375c1.412,0,2.62-0.805,3.708-2.092l2.416-11.398c0.403-1.854,1.933-2.537,3.382-2.537
			c0.728,0,1.412,0.201,1.895,0.523l-2.819,13.331c-0.483,2.257,0.162,2.979,1.208,2.979c1.49,0,3.221-1.007,4.231-2.013
			c0.44,0.2,0.683,0.563,0.683,0.966c0,0.281-0.119,0.605-0.363,0.888c-1.893,2.134-4.793,3.985-6.965,3.985
			c-1.976,0-3.951-1.006-3.746-4.549c-1.612,2.617-3.589,4.549-5.883,4.549c-4.47,0-4.47-4.712-3.785-7.732L168.154,111.237z"/>
		<path fill="#0A466C" d="M195.863,105.157c-2.818,0-4.106-1.974-4.106-3.907c0-1.772,1.167-3.422,3.382-3.422
			c0.646,0,1.049,0.079,1.611,0.401c-0.201,0.362-0.281,0.724-0.281,1.207c0,1.209,0.807,1.813,1.852,1.813
			c1.33,0,2.982-1.048,3.786-3.263c0.727-0.121,1.612,0.281,1.451,1.369C203.275,102.217,200.173,105.157,195.863,105.157
			 M188.093,111.237c0.159-0.643-0.04-1.007-0.405-1.007c-0.2,0-0.443,0.163-0.805,0.483c-0.524-0.32-0.807-1.568,0-2.213
			c1.369-1.089,2.818-1.934,4.511-1.934c1.451,0,2.257,0.684,1.935,2.215l-2.46,11.438c-0.36,1.652,0.162,2.375,1.371,2.375
			c1.411,0,2.618-0.805,3.706-2.092l2.416-11.398c0.404-1.854,1.934-2.537,3.385-2.537c0.724,0,1.408,0.201,1.894,0.523
			l-2.821,13.331c-0.443,2.054,0.08,2.939,0.887,2.939c0.726,0,1.648-0.483,2.255-1.933c0.767,0,1.208,0.402,1.208,1.087
			c0,2.821-3.301,4.712-5.557,4.712c-1.975,0-3.949-1.006-3.748-4.549c-1.608,2.617-3.582,4.549-5.881,4.549
			c-4.469,0-4.469-4.712-3.783-7.732L188.093,111.237z"/>
		<polygon fill="#E13A47" points="90.558,67.304 100.281,58.413 100.281,49.352 82.996,49.352 82.996,68.354 89.399,68.354 		"/>
		<path fill="#E13A47" d="M99.276,28.279c-0.268-1.291,0.187-3.751,3.491-5.237v-1.694h-3.475H85.193h-3.441v1.694
			c3.303,1.486,3.755,3.946,3.491,5.237l-0.296,8.016H99.57L99.276,28.279z"/>
		<path fill="#E13A47" d="M96.18,5.496c-0.461-1.921-2.126-3.351-4.104-3.351c-1.979,0-3.645,1.429-4.105,3.351H96.18z"/>
		<rect x="108.572" y="66.245" fill="#FFFFFF" width="4.813" height="4.811"/>
		<path fill="#0A466C" d="M113.387,71.056h-4.812v-4.811h4.812V71.056z M92.076,2.145c1.977,0,3.643,1.429,4.104,3.351h-8.21
			C88.432,3.574,90.096,2.145,92.076,2.145 M93.367,13.905l2.388-3.483l0.217,7.44L93.367,13.905z M89.258,19.903l2.798-4.086
			l2.692,4.086H89.258z M89.402,7.881h5.491l-2.799,4.087L89.402,7.881z M90.782,13.88l-2.498,3.648l0.387-6.858L90.782,13.88z
			 M139.72,77.45c-0.001,2.248-1.921,4.078-4.271,4.078c-1.88,0-3.478-1.168-4.048-2.783V68.209l-19.428-19.545L90.558,68.244
			v12.732c-1.267-0.701-2.126-2.004-2.137-3.498c0-0.008,0-0.016,0-0.023h-0.004V77.45l-1.069,0.002l-1.074-0.002v0.002
			l-0.002,0.002c0,0.008,0.001,0.016,0.001,0.023c-0.011,1.555-0.942,2.906-2.295,3.584l0.257-6.99l0.528-14.395l0.312-8.468
			l0.528-14.396l0.312-8.47l0.005-0.215c0.234-1.132-0.162-3.288-3.06-4.593v-1.484h3.019h6.328h6.033h2.127h0.922v1.484
			c-2.896,1.305-3.295,3.461-3.064,4.593l0.354,9.576l0.29,7.87l0.333,9.04l-8.645,7.788v4.904l21.436-19.599L131.4,67.226v-4.768
			l-18.924-19.803L101.28,52.741l-0.913-24.795l-0.028-0.216c-0.032-0.154-0.242-1.532,2.379-2.458l0.717-0.253v-5.115h-5.256
			l-0.36-12.262h0.633l0-1.072C98.449,2.947,95.589,0,92.076,0c-3.517,0-6.376,2.947-6.379,6.568v1.072h0.981l0.014,0.022L86,19.903
			h-5.285v5.115l0.716,0.253c2.623,0.926,2.414,2.303,2.389,2.43l-0.035,0.12l-1.971,53.698c-2.267-0.098-4.083-1.881-4.084-4.068
			l-1.073,0.002h-1.072c-0.002,2.248-1.921,4.076-4.276,4.076c-2.352,0-4.269-1.828-4.27-4.076h-2.147
			c0.003,3.432,2.88,6.222,6.417,6.222c2.231,0,4.198-1.11,5.348-2.788c1.151,1.678,3.117,2.788,5.344,2.788
			c2.228,0,4.194-1.11,5.347-2.786c1.152,1.676,3.116,2.786,5.341,2.786c1.877,0,3.562-0.79,4.736-2.038h1.217
			c1.175,1.248,2.861,2.038,4.739,2.038c1.876,0,3.561-0.79,4.734-2.038h1.215c1.173,1.248,2.859,2.038,4.734,2.038
			c1.879,0,3.561-0.79,4.736-2.038h1.222c1.171,1.248,2.858,2.038,4.729,2.038c1.879,0,3.564-0.79,4.737-2.038h0.6h0.624
			c1.173,1.248,2.858,2.038,4.735,2.038c3.533,0,6.412-2.79,6.42-6.22L139.72,77.45z"/>
	</g>
</g>
</svg>
